<svg width="50" height="50" viewBox="0 0 50 50" fill="none" xmlns="http://www.w3.org/2000/svg">
<path d="M45.8332 13.6459C45.8098 12.7471 45.7402 11.8501 45.6248 10.9584C45.4693 10.1774 45.21 9.42072 44.854 8.70841C44.4816 7.93572 43.9816 7.23139 43.3748 6.62508C42.7625 6.02551 42.0594 5.52631 41.2915 5.14591C40.5782 4.79684 39.8216 4.54461 39.0415 4.39591C38.1583 4.26362 37.2677 4.18708 36.3748 4.16675H13.6457C12.7469 4.19016 11.8498 4.25969 10.9582 4.37508C10.1772 4.53064 9.42048 4.78988 8.70817 5.14591C7.93547 5.51828 7.23114 6.01836 6.62484 6.62508C6.02526 7.23739 5.52607 7.94049 5.14567 8.70841C4.7966 9.42167 4.54437 10.1784 4.39567 10.9584C4.26338 11.8416 4.18684 12.7323 4.1665 13.6251C4.1665 14.0209 4.1665 14.5834 4.1665 14.7501V35.2501C4.1665 35.4793 4.1665 35.9793 4.1665 36.3543C4.18991 37.2531 4.25945 38.1501 4.37484 39.0418C4.5304 39.8227 4.78964 40.5794 5.14567 41.2918C5.51804 42.0644 6.01811 42.7688 6.62484 43.3751C7.23715 43.9747 7.94024 44.4739 8.70817 44.8543C9.42143 45.2033 10.1781 45.4556 10.9582 45.6042C11.8414 45.7365 12.732 45.8131 13.6248 45.8334H36.354C37.2528 45.81 38.1498 45.7405 39.0415 45.6251C39.8225 45.4695 40.5792 45.2103 41.2915 44.8543C42.0642 44.4819 42.7685 43.9818 43.3748 43.3751C43.9744 42.7628 44.4736 42.0597 44.854 41.2918C45.2031 40.5785 45.4553 39.8218 45.604 39.0418C45.7363 38.1586 45.8128 37.2679 45.8332 36.3751C45.8332 35.9792 45.8332 35.4793 45.8332 35.2501V14.7501C45.8332 14.5834 45.8332 14.0209 45.8332 13.6459ZM25.479 39.5834C22.977 39.5711 20.5189 38.9261 18.3332 37.7084L10.4165 39.7918L12.4998 32.0418C11.1563 29.7844 10.4373 27.2103 10.4165 24.5834C10.4248 21.6312 11.3065 18.7474 12.9506 16.2953C14.5947 13.8432 16.9276 11.9324 19.6555 10.8037C22.3835 9.67488 25.3844 9.37856 28.2804 9.95204C31.1765 10.5255 33.838 11.9431 35.9299 14.0263C38.0218 16.1096 39.4505 18.7652 40.036 21.6588C40.6215 24.5524 40.3377 27.5546 39.2202 30.2872C38.1028 33.0198 36.2018 35.3606 33.7565 37.0149C31.3113 38.6692 28.4312 39.5628 25.479 39.5834V39.5834ZM25.479 12.2292C23.2703 12.2545 21.1077 12.8646 19.2114 13.9975C17.3151 15.1303 15.7529 16.7454 14.6838 18.6782C13.6147 20.6111 13.0768 22.7928 13.125 25.0012C13.1732 27.2095 13.8057 29.3657 14.9582 31.2501L15.2498 31.7292L13.9998 36.2918L18.7498 35.0001L19.2082 35.2709C21.1031 36.3871 23.259 36.9835 25.4582 37.0001V37.0001C28.7734 37.0001 31.9528 35.6831 34.297 33.3389C36.6412 30.9947 37.9582 27.8153 37.9582 24.5001C37.9582 21.1849 36.6412 18.0055 34.297 15.6612C31.9528 13.317 28.7734 12.0001 25.4582 12.0001L25.479 12.2292ZM32.7707 29.9793C32.4978 30.4344 32.1324 30.8272 31.6982 31.1322C31.264 31.4373 30.7705 31.6478 30.2498 31.7501C29.4718 31.8923 28.6708 31.8422 27.9165 31.6043C27.2068 31.3824 26.5111 31.118 25.8332 30.8126C23.2576 29.5202 21.0612 27.5822 19.4582 25.1876C18.5871 24.0782 18.0586 22.7387 17.9373 21.3334C17.9249 20.7496 18.0354 20.1698 18.2615 19.6314C18.4876 19.0931 18.8243 18.6083 19.2498 18.2084C19.3752 18.0663 19.5289 17.9521 19.7012 17.8731C19.8735 17.7942 20.0604 17.7523 20.2498 17.7501H20.8332C21.0623 17.7501 21.3748 17.7501 21.6665 18.3959C21.9582 19.0417 22.729 20.9792 22.8332 21.1667C22.8844 21.2667 22.9111 21.3774 22.9111 21.4897C22.9111 21.602 22.8844 21.7126 22.8332 21.8126C22.7411 22.039 22.6146 22.2498 22.4582 22.4376C22.2707 22.6668 22.0623 22.9376 21.8957 23.1042C21.729 23.2709 21.5207 23.4792 21.729 23.8542C22.2959 24.8109 22.9975 25.6809 23.8123 26.4376C24.6997 27.2217 25.7142 27.8487 26.8123 28.2917C27.1873 28.4792 27.4165 28.4584 27.6248 28.2917C27.8332 28.1251 28.5623 27.2084 28.8123 26.8334C29.0623 26.4584 29.3123 26.5209 29.6457 26.6459C29.979 26.7709 31.8332 27.6667 32.2082 27.8542C32.5832 28.0417 32.8123 28.1251 32.9165 28.2917C33.0069 28.837 32.9567 29.3963 32.7707 29.9167V29.9793Z" fill="#37F119"/>
</svg>
