<svg width="50" height="50" viewBox="0 0 50 50" fill="none" xmlns="http://www.w3.org/2000/svg">
<path d="M42.6457 4.16655H7.354C6.95729 4.16104 6.56338 4.23373 6.19477 4.38048C5.82615 4.52722 5.49005 4.74514 5.20567 5.02178C4.92128 5.29843 4.69417 5.62839 4.53732 5.99282C4.38047 6.35725 4.29694 6.74901 4.2915 7.14572V42.854C4.29694 43.2508 4.38047 43.6425 4.53732 44.0069C4.69417 44.3714 4.92128 44.7013 5.20567 44.978C5.49005 45.2546 5.82615 45.4725 6.19477 45.6193C6.56338 45.766 6.95729 45.8387 7.354 45.8332H42.6457C43.0424 45.8387 43.4363 45.766 43.8049 45.6193C44.1735 45.4725 44.5096 45.2546 44.794 44.978C45.0784 44.7013 45.3055 44.3714 45.4624 44.0069C45.6192 43.6425 45.7027 43.2508 45.7082 42.854V7.14572C45.7027 6.74901 45.6192 6.35725 45.4624 5.99282C45.3055 5.62839 45.0784 5.29843 44.794 5.02178C44.5096 4.74514 44.1735 4.52722 43.8049 4.38048C43.4363 4.23373 43.0424 4.16104 42.6457 4.16655V4.16655ZM16.854 39.0415H10.604V20.2915H16.854V39.0415ZM13.729 17.6665C12.8671 17.6665 12.0404 17.3241 11.4309 16.7146C10.8214 16.1052 10.479 15.2785 10.479 14.4166C10.479 13.5546 10.8214 12.7279 11.4309 12.1185C12.0404 11.509 12.8671 11.1666 13.729 11.1666C14.1867 11.1146 14.6502 11.16 15.0892 11.2996C15.5281 11.4393 15.9326 11.6701 16.2762 11.9769C16.6198 12.2837 16.8947 12.6596 17.0829 13.0801C17.2711 13.5005 17.3684 13.9559 17.3684 14.4166C17.3684 14.8772 17.2711 15.3326 17.0829 15.753C16.8947 16.1735 16.6198 16.5494 16.2762 16.8562C15.9326 17.163 15.5281 17.3938 15.0892 17.5335C14.6502 17.6731 14.1867 17.7185 13.729 17.6665V17.6665ZM39.3957 39.0415H33.1457V28.9791C33.1457 26.4582 32.2498 24.8124 29.979 24.8124C29.2762 24.8175 28.5919 25.038 28.0182 25.444C27.4446 25.85 27.0092 26.4221 26.7707 27.0832C26.6076 27.5729 26.537 28.0886 26.5623 28.604V39.0207H20.3123C20.3123 39.0207 20.3123 21.979 20.3123 20.2707H26.5623V22.9166C27.1301 21.9314 27.9559 21.1197 28.9508 20.5691C29.9456 20.0184 31.0719 19.7496 32.2082 19.7916C36.3748 19.7916 39.3957 22.4791 39.3957 28.2499V39.0415Z" fill="#2963F8"/>
</svg>
