<svg width="61" height="97" viewBox="0 0 61 97" fill="none" xmlns="http://www.w3.org/2000/svg">
<path d="M2.88 79.552L4.536 79.12C6.072 78.688 7.224 78.064 7.992 77.248C8.76 76.384 9.144 75.04 9.144 73.216V36.856C9.144 36.232 9.024 35.8 8.784 35.56C8.544 35.272 8.136 35.128 7.56 35.128H3.384L2.52 32.464C4.824 31.648 7.8 30.928 11.448 30.304C15.096 29.632 18.624 29.296 22.032 29.296C32.064 29.296 39.264 31.792 43.632 36.784C48.048 41.728 50.256 48.208 50.256 56.224C50.256 61.12 49.344 65.512 47.52 69.4C45.744 73.288 43.056 76.36 39.456 78.616C35.904 80.872 31.536 82 26.352 82H3.744L2.88 79.552ZM16.272 69.4C16.272 72.808 16.968 75.16 18.36 76.456C19.8 77.704 21.696 78.328 24.048 78.328C36.288 78.328 42.408 70.912 42.408 56.08C42.408 52.048 41.712 48.304 40.32 44.848C38.928 41.392 36.792 38.608 33.912 36.496C31.08 34.384 27.552 33.328 23.328 33.328C18.624 33.328 16.272 34.432 16.272 36.64V69.4Z" fill="url(#paint0_linear_83_436)"/>
<path d="M2.88 79.552L2.62758 78.5844L1.57495 78.859L1.93701 79.8848L2.88 79.552ZM4.536 79.12L4.78842 80.0876L4.79761 80.0852L4.80675 80.0827L4.536 79.12ZM7.992 77.248L8.7202 77.9334L8.72995 77.923L8.73941 77.9124L7.992 77.248ZM8.784 35.56L8.01578 36.2002L8.04482 36.235L8.07689 36.2671L8.784 35.56ZM3.384 35.128L2.43278 35.4365L2.65705 36.128H3.384V35.128ZM2.52 32.464L2.18615 31.5214L1.26842 31.8464L1.56878 32.7725L2.52 32.464ZM11.448 30.304L11.6166 31.2898L11.6292 31.2874L11.448 30.304ZM43.632 36.784L42.8794 37.4425L42.8862 37.4502L43.632 36.784ZM47.52 69.4L46.6146 68.9753L46.6104 68.9845L47.52 69.4ZM39.456 78.616L38.925 77.7686L38.9199 77.7719L39.456 78.616ZM3.744 82L2.80101 82.3328L3.03648 83H3.744V82ZM18.36 76.456L17.6786 77.1879L17.6916 77.2L17.7051 77.2117L18.36 76.456ZM40.32 44.848L39.3924 45.2216L39.3924 45.2216L40.32 44.848ZM33.912 36.496L33.3142 37.2977L33.3206 37.3024L33.912 36.496ZM3.13242 80.5196L4.78842 80.0876L4.28358 78.1524L2.62758 78.5844L3.13242 80.5196ZM4.80675 80.0827C6.44735 79.6212 7.78576 78.9262 8.7202 77.9334L7.2638 76.5626C6.66224 77.2018 5.69665 77.7548 4.26525 78.1573L4.80675 80.0827ZM8.73941 77.9124C9.74159 76.7849 10.144 75.1502 10.144 73.216H8.144C8.144 74.9298 7.77841 75.9831 7.24459 76.5836L8.73941 77.9124ZM10.144 73.216V36.856H8.144V73.216H10.144ZM10.144 36.856C10.144 36.1679 10.0243 35.3861 9.49111 34.8529L8.07689 36.2671C8.04197 36.2322 8.06229 36.2302 8.09048 36.3316C8.11889 36.4339 8.144 36.602 8.144 36.856H10.144ZM9.55222 34.9198C9.03911 34.3041 8.27233 34.128 7.56 34.128V36.128C7.99967 36.128 8.04889 36.2399 8.01578 36.2002L9.55222 34.9198ZM7.56 34.128H3.384V36.128H7.56V34.128ZM4.33522 34.8195L3.47122 32.1555L1.56878 32.7725L2.43278 35.4365L4.33522 34.8195ZM2.85385 33.4066C5.08425 32.6167 7.99934 31.9084 11.6166 31.2897L11.2794 29.3183C7.60066 29.9476 4.56375 30.6793 2.18615 31.5214L2.85385 33.4066ZM11.6292 31.2874C15.2226 30.6255 18.6898 30.296 22.032 30.296V28.296C18.5582 28.296 14.9694 28.6385 11.2668 29.3205L11.6292 31.2874ZM22.032 30.296C31.9243 30.296 38.7811 32.7587 42.8794 37.4425L44.3846 36.1255C39.7469 30.8253 32.2037 28.296 22.032 28.296V30.296ZM42.8862 37.4502C47.1058 42.1743 49.256 48.3998 49.256 56.224H51.256C51.256 48.0162 48.9902 41.2817 44.3778 36.1178L42.8862 37.4502ZM49.256 56.224C49.256 60.9938 48.3681 65.2376 46.6147 68.9753L48.4253 69.8247C50.3199 65.7864 51.256 61.2462 51.256 56.224H49.256ZM46.6104 68.9845C44.9151 72.6958 42.3582 75.6172 38.925 77.7686L39.987 79.4634C43.7538 77.1028 46.5729 73.8802 48.4296 69.8155L46.6104 68.9845ZM38.9199 77.7719C35.5617 79.9047 31.3902 81 26.352 81V83C31.6818 83 36.2463 81.8393 39.9921 79.4601L38.9199 77.7719ZM26.352 81H3.744V83H26.352V81ZM4.68699 81.6672L3.82299 79.2192L1.93701 79.8848L2.80101 82.3328L4.68699 81.6672ZM15.272 69.4C15.272 72.8823 15.9714 75.5985 17.6786 77.1879L19.0414 75.7241C17.9646 74.7215 17.272 72.7337 17.272 69.4H15.272ZM17.7051 77.2117C19.3667 78.6518 21.5139 79.328 24.048 79.328V77.328C21.8781 77.328 20.2333 76.7562 19.0149 75.7003L17.7051 77.2117ZM24.048 79.328C30.3782 79.328 35.2895 77.4011 38.5893 73.4025C41.8587 69.4407 43.408 63.6084 43.408 56.08H41.408C41.408 63.3836 39.8973 68.6753 37.0467 72.1295C34.2265 75.5469 29.9578 77.328 24.048 77.328V79.328ZM43.408 56.08C43.408 51.9306 42.6912 48.0586 41.2476 44.4744L39.3924 45.2216C40.7328 48.5494 41.408 52.1654 41.408 56.08H43.408ZM41.2476 44.4744C39.7892 40.8535 37.5402 37.9166 34.5034 35.6896L33.3206 37.3024C36.0438 39.2994 38.0668 41.9305 39.3924 45.2216L41.2476 44.4744ZM34.5098 35.6944C31.4733 33.4299 27.7241 32.328 23.328 32.328V34.328C27.3799 34.328 30.6867 35.3381 33.3142 37.2976L34.5098 35.6944ZM23.328 32.328C20.9294 32.328 18.988 32.6045 17.6111 33.2508C16.9097 33.58 16.3156 34.0234 15.8977 34.612C15.473 35.21 15.272 35.8995 15.272 36.64H17.272C17.272 36.2765 17.365 36 17.5283 35.77C17.6984 35.5306 17.9863 35.284 18.4609 35.0612C19.436 34.6035 21.0226 34.328 23.328 34.328V32.328ZM15.272 36.64V69.4H17.272V36.64H15.272Z" fill="url(#paint1_linear_83_436)"/>
<path d="M30.724 66.158C30.724 67.7367 30.8473 68.9207 31.094 69.71C31.3407 70.4993 31.7847 71.042 32.426 71.338C33.1167 71.634 34.128 71.782 35.46 71.782H41.898C43.674 71.782 45.0553 71.6093 46.042 71.264C47.0287 70.8693 47.7933 70.228 48.336 69.34C48.928 68.4027 49.4707 67.0213 49.964 65.196L50.408 63.494L52.924 64.382V77.036L51.444 77.85L50.852 77.036C50.3093 76.3453 49.2733 76 47.744 76H18.144L17.33 73.632L18.884 73.188C20.7093 72.6453 21.918 71.9547 22.51 71.116C23.102 70.2773 23.398 68.7973 23.398 66.676V32.71C23.398 30.4407 23.0773 28.862 22.436 27.974C21.7947 27.086 20.5367 26.3707 18.662 25.828L16.96 25.384L17.848 22.868H34.054L35.016 24.052L34.054 25.384C32.8207 27.012 31.9573 28.7387 31.464 30.564C30.9707 32.3893 30.724 34.782 30.724 37.742V66.158Z" fill="url(#paint2_linear_83_436)"/>
<path d="M31.094 69.71L30.1395 70.0083L30.1395 70.0083L31.094 69.71ZM32.426 71.338L32.0069 72.246L32.0194 72.2517L32.0321 72.2571L32.426 71.338ZM46.042 71.264L46.3724 72.2079L46.393 72.2006L46.4134 72.1925L46.042 71.264ZM48.336 69.34L47.4905 68.806L47.4866 68.8122L47.4827 68.8185L48.336 69.34ZM49.964 65.196L50.9294 65.4569L50.9316 65.4484L49.964 65.196ZM50.408 63.494L50.7408 62.551L49.715 62.1889L49.4404 63.2416L50.408 63.494ZM52.924 64.382H53.924V63.6745L53.2568 63.439L52.924 64.382ZM52.924 77.036L53.4059 77.9122L53.924 77.6273V77.036H52.924ZM51.444 77.85L50.6353 78.4382L51.1537 79.151L51.9259 78.7262L51.444 77.85ZM50.852 77.036L51.6607 76.4478L51.6498 76.4328L51.6383 76.4182L50.852 77.036ZM18.144 76L17.1983 76.3251L17.4303 77H18.144V76ZM17.33 73.632L17.0553 72.6705L16.0416 72.9601L16.3843 73.9571L17.33 73.632ZM18.884 73.188L19.1587 74.1496L19.169 74.1465L18.884 73.188ZM22.51 71.116L21.693 70.5393L21.693 70.5393L22.51 71.116ZM22.436 27.974L23.2467 27.3885L23.2467 27.3885L22.436 27.974ZM18.662 25.828L18.9401 24.8674L18.9273 24.8637L18.9144 24.8604L18.662 25.828ZM16.96 25.384L16.017 25.0512L15.6549 26.077L16.7076 26.3516L16.96 25.384ZM17.848 22.868V21.868H17.1405L16.905 22.5352L17.848 22.868ZM34.054 22.868L34.8301 22.2374L34.53 21.868H34.054V22.868ZM35.016 24.052L35.8267 24.6375L36.2754 24.0162L35.7921 23.4214L35.016 24.052ZM34.054 25.384L34.8511 25.9879L34.858 25.9788L34.8647 25.9695L34.054 25.384ZM31.464 30.564L32.4294 30.8249L32.4294 30.8249L31.464 30.564ZM29.724 66.158C29.724 67.7635 29.8465 69.0706 30.1395 70.0083L32.0485 69.4117C31.8482 68.7707 31.724 67.7098 31.724 66.158H29.724ZM30.1395 70.0083C30.4547 71.0169 31.0646 71.811 32.0069 72.246L32.8451 70.43C32.5047 70.273 32.2266 69.9818 32.0485 69.4117L30.1395 70.0083ZM32.0321 72.2571C32.9087 72.6328 34.0811 72.782 35.46 72.782V70.782C34.1749 70.782 33.3246 70.6352 32.8199 70.4189L32.0321 72.2571ZM35.46 72.782H41.898V70.782H35.46V72.782ZM41.898 72.782C43.7193 72.782 45.2306 72.6075 46.3724 72.2079L45.7117 70.3201C44.88 70.6112 43.6287 70.782 41.898 70.782V72.782ZM46.4134 72.1925C47.5958 71.7195 48.5316 70.9377 49.1893 69.8615L47.4827 68.8185C47.0551 69.5183 46.4615 70.0192 45.6706 70.3355L46.4134 72.1925ZM49.1815 69.874C49.8515 68.8132 50.4256 67.3209 50.9294 65.4569L48.9986 64.9351C48.5158 66.7217 48.0045 67.9922 47.4905 68.806L49.1815 69.874ZM50.9316 65.4484L51.3756 63.7464L49.4404 63.2416L48.9964 64.9436L50.9316 65.4484ZM50.0752 64.437L52.5912 65.325L53.2568 63.439L50.7408 62.551L50.0752 64.437ZM51.924 64.382V77.036H53.924V64.382H51.924ZM52.4421 76.1598L50.9621 76.9738L51.9259 78.7262L53.4059 77.9122L52.4421 76.1598ZM52.2527 77.2618L51.6607 76.4478L50.0433 77.6242L50.6353 78.4382L52.2527 77.2618ZM51.6383 76.4182C50.8028 75.3548 49.361 75 47.744 75V77C49.1856 77 49.8159 77.3359 50.0657 77.6538L51.6383 76.4182ZM47.744 75H18.144V77H47.744V75ZM19.0897 75.6749L18.2757 73.3069L16.3843 73.9571L17.1983 76.3251L19.0897 75.6749ZM17.6047 74.5935L19.1587 74.1495L18.6093 72.2265L17.0553 72.6705L17.6047 74.5935ZM19.169 74.1465C21.049 73.5876 22.5341 72.816 23.327 71.6927L21.693 70.5393C21.3019 71.0934 20.3697 71.7031 18.599 72.2295L19.169 74.1465ZM23.327 71.6927C24.1112 70.5817 24.398 68.8238 24.398 66.676H22.398C22.398 68.7709 22.0928 69.973 21.693 70.5393L23.327 71.6927ZM24.398 66.676V32.71H22.398V66.676H24.398ZM24.398 32.71C24.398 30.4149 24.0871 28.5521 23.2467 27.3885L21.6253 28.5595C22.0676 29.1719 22.398 30.4665 22.398 32.71H24.398ZM23.2467 27.3885C22.4062 26.2248 20.8803 25.4291 18.9401 24.8674L18.3839 26.7886C20.193 27.3122 21.1831 27.9472 21.6253 28.5595L23.2467 27.3885ZM18.9144 24.8604L17.2124 24.4164L16.7076 26.3516L18.4096 26.7956L18.9144 24.8604ZM17.903 25.7168L18.791 23.2008L16.905 22.5352L16.017 25.0512L17.903 25.7168ZM17.848 23.868H34.054V21.868H17.848V23.868ZM33.2779 23.4986L34.2399 24.6826L35.7921 23.4214L34.8301 22.2374L33.2779 23.4986ZM34.2053 23.4665L33.2433 24.7985L34.8647 25.9695L35.8267 24.6375L34.2053 23.4665ZM33.2569 24.7801C31.9522 26.5023 31.0281 28.344 30.4986 30.3031L32.4294 30.8249C32.8866 29.1333 33.6891 27.5217 34.8511 25.9879L33.2569 24.7801ZM30.4986 30.3031C29.9732 32.2473 29.724 34.7376 29.724 37.742H31.724C31.724 34.8264 31.9682 32.5314 32.4294 30.8249L30.4986 30.3031ZM29.724 37.742V66.158H31.724V37.742H29.724Z" fill="url(#paint3_linear_83_436)"/>
<path d="M39.464 53.488C39.464 54.8533 39.5707 55.8773 39.784 56.56C39.9973 57.2427 40.3813 57.712 40.936 57.968C41.5333 58.224 42.408 58.352 43.56 58.352H49.128C50.664 58.352 51.8587 58.2027 52.712 57.904C53.5653 57.5627 54.2267 57.008 54.696 56.24C55.208 55.4293 55.6773 54.2347 56.104 52.656L56.488 51.184L58.664 51.952V62.896L57.384 63.6L56.872 62.896C56.4027 62.2987 55.5067 62 54.184 62H28.584L27.88 59.952L29.224 59.568C30.8027 59.0987 31.848 58.5013 32.36 57.776C32.872 57.0507 33.128 55.7707 33.128 53.936V24.56C33.128 22.5973 32.8507 21.232 32.296 20.464C31.7413 19.696 30.6533 19.0773 29.032 18.608L27.56 18.224L28.328 16.048H42.344L43.176 17.072L42.344 18.224C41.2773 19.632 40.5307 21.1253 40.104 22.704C39.6773 24.2827 39.464 26.352 39.464 28.912V53.488Z" fill="url(#paint4_linear_83_436)"/>
<path d="M39.784 56.56L38.8295 56.8583L38.8295 56.8583L39.784 56.56ZM40.936 57.968L40.5169 58.876L40.5294 58.8817L40.5421 58.8871L40.936 57.968ZM52.712 57.904L53.0424 58.8479L53.063 58.8406L53.0834 58.8325L52.712 57.904ZM54.696 56.24L53.8505 55.706L53.8466 55.7122L53.8427 55.7185L54.696 56.24ZM56.104 52.656L57.0694 52.9169L57.0716 52.9084L56.104 52.656ZM56.488 51.184L56.8208 50.241L55.795 49.8789L55.5204 50.9316L56.488 51.184ZM58.664 51.952H59.664V51.2445L58.9968 51.009L58.664 51.952ZM58.664 62.896L59.1459 63.7722L59.664 63.4873V62.896H58.664ZM57.384 63.6L56.5753 64.1882L57.0937 64.901L57.8659 64.4762L57.384 63.6ZM56.872 62.896L57.6807 62.3078L57.6698 62.2928L57.6583 62.2782L56.872 62.896ZM28.584 62L27.6383 62.3251L27.8703 63H28.584V62ZM27.88 59.952L27.6053 58.9905L26.5916 59.2801L26.9343 60.2771L27.88 59.952ZM29.224 59.568L29.4987 60.5296L29.509 60.5265L29.224 59.568ZM32.36 57.776L31.543 57.1993L31.543 57.1993L32.36 57.776ZM32.296 20.464L33.1067 19.8785L33.1067 19.8785L32.296 20.464ZM29.032 18.608L29.3101 17.6474L29.2973 17.6437L29.2844 17.6404L29.032 18.608ZM27.56 18.224L26.617 17.8912L26.2549 18.917L27.3076 19.1916L27.56 18.224ZM28.328 16.048V15.048H27.6205L27.385 15.7152L28.328 16.048ZM42.344 16.048L43.1201 15.4174L42.82 15.048H42.344V16.048ZM43.176 17.072L43.9867 17.6575L44.4354 17.0362L43.9521 16.4414L43.176 17.072ZM42.344 18.224L43.1411 18.8279L43.148 18.8188L43.1547 18.8095L42.344 18.224ZM40.104 22.704L41.0694 22.9649L41.0694 22.9649L40.104 22.704ZM38.464 53.488C38.464 54.8802 38.5698 56.0273 38.8295 56.8583L40.7385 56.2617C40.5715 55.7274 40.464 54.8265 40.464 53.488H38.464ZM38.8295 56.8583C39.1114 57.7602 39.6613 58.481 40.5169 58.876L41.3551 57.06C41.1014 56.943 40.8833 56.7251 40.7385 56.2617L38.8295 56.8583ZM40.5421 58.8871C41.3254 59.2228 42.3611 59.352 43.56 59.352V57.352C42.4549 57.352 41.7413 57.2252 41.3299 57.0489L40.5421 58.8871ZM43.56 59.352H49.128V57.352H43.56V59.352ZM49.128 59.352C50.7093 59.352 52.034 59.2008 53.0424 58.8479L52.3817 56.9601C51.6834 57.2045 50.6187 57.352 49.128 57.352V59.352ZM53.0834 58.8325C54.1325 58.4128 54.9649 57.7177 55.5493 56.7615L53.8427 55.7185C53.4884 56.2983 52.9982 56.7125 52.3406 56.9755L53.0834 58.8325ZM55.5415 56.774C56.1315 55.8398 56.6322 54.5343 57.0694 52.9169L55.1386 52.3951C54.7224 53.9351 54.2845 55.0188 53.8505 55.706L55.5415 56.774ZM57.0716 52.9084L57.4556 51.4364L55.5204 50.9316L55.1364 52.4036L57.0716 52.9084ZM56.1552 52.127L58.3312 52.895L58.9968 51.009L56.8208 50.241L56.1552 52.127ZM57.664 51.952V62.896H59.664V51.952H57.664ZM58.1821 62.0198L56.9021 62.7238L57.8659 64.4762L59.1459 63.7722L58.1821 62.0198ZM58.1927 63.0118L57.6807 62.3078L56.0633 63.4842L56.5753 64.1882L58.1927 63.0118ZM57.6583 62.2782C56.8961 61.3081 55.5944 61 54.184 61V63C55.419 63 55.9092 63.2892 56.0857 63.5138L57.6583 62.2782ZM54.184 61H28.584V63H54.184V61ZM29.5297 61.6749L28.8257 59.6269L26.9343 60.2771L27.6383 62.3251L29.5297 61.6749ZM28.1547 60.9135L29.4987 60.5295L28.9493 58.6065L27.6053 58.9905L28.1547 60.9135ZM29.509 60.5265C31.1423 60.0409 32.4641 59.3626 33.177 58.3527L31.543 57.1993C31.2319 57.64 30.463 58.1564 28.939 58.6095L29.509 60.5265ZM33.177 58.3527C33.8812 57.355 34.128 55.7971 34.128 53.936H32.128C32.128 55.7442 31.8628 56.7463 31.543 57.1993L33.177 58.3527ZM34.128 53.936V24.56H32.128V53.936H34.128ZM34.128 24.56C34.128 22.5715 33.8604 20.9221 33.1067 19.8785L31.4853 21.0495C31.8409 21.5419 32.128 22.6231 32.128 24.56H34.128ZM33.1067 19.8785C32.3529 18.8348 30.997 18.1358 29.3101 17.6474L28.7539 19.5686C30.3097 20.0189 31.1298 20.5572 31.4853 21.0495L33.1067 19.8785ZM29.2844 17.6404L27.8124 17.2564L27.3076 19.1916L28.7796 19.5756L29.2844 17.6404ZM28.503 18.5568L29.271 16.3808L27.385 15.7152L26.617 17.8912L28.503 18.5568ZM28.328 17.048H42.344V15.048H28.328V17.048ZM41.5679 16.6786L42.3999 17.7026L43.9521 16.4414L43.1201 15.4174L41.5679 16.6786ZM42.3653 16.4865L41.5333 17.6385L43.1547 18.8095L43.9867 17.6575L42.3653 16.4865ZM41.5469 17.6201C40.4089 19.1223 39.6014 20.7307 39.1386 22.4431L41.0694 22.9649C41.4599 21.52 42.1458 20.1417 43.1411 18.8279L41.5469 17.6201ZM39.1386 22.4431C38.6798 24.1406 38.464 26.3076 38.464 28.912H40.464C40.464 26.3964 40.6748 24.4247 41.0694 22.9649L39.1386 22.4431ZM38.464 28.912V53.488H40.464V28.912H38.464Z" fill="url(#paint5_linear_83_436)"/>
<defs>
<linearGradient id="paint0_linear_83_436" x1="26.5" y1="17" x2="26.5" y2="97" gradientUnits="userSpaceOnUse">
<stop stop-color="#FFBF00"/>
<stop offset="1" stop-color="#F2A50C"/>
</linearGradient>
<linearGradient id="paint1_linear_83_436" x1="7.81967" y1="33.0825" x2="45.6708" y2="96.7137" gradientUnits="userSpaceOnUse">
<stop stop-color="#2F0045"/>
<stop offset="1" stop-color="#2F0045" stop-opacity="0.7"/>
</linearGradient>
<linearGradient id="paint2_linear_83_436" x1="34.5" y1="10" x2="34.5" y2="90" gradientUnits="userSpaceOnUse">
<stop stop-color="#FFBF00"/>
<stop offset="1" stop-color="#F2A50C"/>
</linearGradient>
<linearGradient id="paint3_linear_83_436" x1="20.0492" y1="26.0825" x2="61.6778" y2="80.2191" gradientUnits="userSpaceOnUse">
<stop stop-color="#2F0045"/>
<stop offset="1" stop-color="#2F0045" stop-opacity="0.7"/>
</linearGradient>
<linearGradient id="paint4_linear_83_436" x1="43" y1="0" x2="43" y2="80" gradientUnits="userSpaceOnUse">
<stop stop-color="#FFBF00"/>
<stop offset="1" stop-color="#F2A50C"/>
</linearGradient>
<linearGradient id="paint5_linear_83_436" x1="30.3115" y1="16.0825" x2="73.0087" y2="64.8373" gradientUnits="userSpaceOnUse">
<stop stop-color="#2F0045"/>
<stop offset="1" stop-color="#2F0045" stop-opacity="0.7"/>
</linearGradient>
</defs>
</svg>
